<svg version="1.1" id="Capa_1" xmlns="http://www.w3.org/2000/svg" xmlns:xlink="http://www.w3.org/1999/xlink" x="0px" y="0px"
	 viewBox="0 0 1020.5 198.4" style="enable-background:new 0 0 1020.5 198.4;" xml:space="preserve">
<style type="text/css">
	.st0{fill-rule:evenodd;clip-rule:evenodd;}
</style>
<path d="M375.5,62.7c-5.8,0-11,1.5-15.4,4.4c-0.8-2-2.8-3.3-5-3.3h-8.8c-2.9,0-5.4,2.4-5.4,5.4v67.2c0,3,2.4,5.4,5.4,5.4h10.9
	c2.9,0,5.4-2.4,5.4-5.4V97.1c0-5.2,1.4-8.5,3.5-10.6c2.3-2.3,5.1-3.5,8.4-3.5c3.3,0,6,1.1,8.4,3.5c2,2,3.5,5.6,3.5,11.7v38.1
	c0,3,2.4,5.4,5.4,5.4h10.9c2.9,0,5.4-2.4,5.4-5.4V98.3c0-6.1,1.4-9.7,3.5-11.7c2.3-2.3,5.1-3.5,8.4-3.5c3.3,0,6,1.1,8.4,3.5
	c2,2,3.5,5.6,3.5,11.7v38.1c0,3,2.4,5.4,5.4,5.4h10.9c2.9,0,5.4-2.4,5.4-5.4V98.3c0-11-3.1-20.1-10-26.4c-6.5-6.1-14.4-9.2-23.4-9.2
	c-8.6,0-15.8,3.2-21.4,9.4C392.1,65.8,384.5,62.7,375.5,62.7z"/>
<g>
	<path d="M484.4,63.9c1.5,0,2.8,1.2,2.8,2.8V139c0,1.5-1.2,2.8-2.8,2.8h-17c-1.5,0-2.8-1.2-2.8-2.8V66.7c0-1.5,1.2-2.8,2.8-2.8
		H484.4z"/>
	<path d="M489.9,42.9c0,7.8-6.3,14.1-14.1,14.1c-7.8,0-14.1-6.3-14.1-14.1c0-7.8,6.3-14.1,14.1-14.1
		C483.6,28.8,489.9,35.1,489.9,42.9z"/>
</g>
<path d="M280.4,100v38.9c0,1.5-1.2,2.8-2.8,2.8h-16.9c-1.5,0-2.8-1.2-2.8-2.8V66.2c0-1.5,1.2-2.8,2.8-2.8h12.8c1.1,0,2,0.7,2.4,1.7
	l0,0c0.7,1.9,3.4,2.3,4.9,0.9c3.8-3.4,8.7-5.1,14.5-5.1c4.5,0,9,1.1,13.2,3.2c1.3,0.6,1.8,2.2,1.1,3.5l-6.4,13.1
	c-0.7,1.4-2.4,2-3.9,1.4c-1.8-0.7-3.6-1-5.4-1c-3.7,0-6.9,1.6-9.6,4.7C281.8,88.8,280.4,93.6,280.4,100z"/>
<path d="M198.4,59.9c0,2.3,2.8,3.9,5.1,3.2c3-0.9,6.8-1.3,11.4-1.3c9.2,0,17.1,3.4,23.9,10.2c6.8,6.7,10.2,16.4,10.2,28.9v37.6
	c0,1.5-1.2,2.8-2.8,2.8H229c-1.5,0-2.8-1.2-2.8-2.8V97.2c0-5.6-1.3-9.7-4-12.4c-2.7-2.7-6-4-9.8-4c-3.9,0-7.2,1.3-9.8,4
	c-2.7,2.7-4,6.4-4,11.1v42.7c0,1.5-1.2,2.8-2.8,2.8h-17.2c-1.5,0-2.8-1.2-2.8-2.8V38.1c0-1.5,1.2-2.8,2.8-2.8h17.2
	c1.5,0,2.8,1.2,2.8,2.8V59.9z"/>
<g>
	<g>
		<path d="M540.5,64.3c5.4-8.6,12.6-12.9,21.4-12.9c1.7,0,3.1-0.1,4.8,0.4c1.1,0.3,4.8,1.3,6.2,4.1c2.3,4.5-2.1,11.9-6,12.3
			c-2.2,0.2-3.3-1.7-7.3-1.7c-3.2,0-5.8,1.5-7.6,4.4c8.8,5,13.2,11.8,13.2,20.6c0,8.9-3.1,15.8-9.2,20.5c-6.1,4.7-14.6,7.1-25.6,7.1
			c-5.5,0.1-9,0.5-10.5,1.1c-1.5,0.7-2.2,1.6-2.2,2.8c0,1.3,0.7,2.2,2.1,2.7c1.4,0.5,5.3,1.1,11.6,1.7c11.6,0.9,20.8,3.5,27.8,7.8
			c7,4.3,10.4,10.7,10.4,19.1c0,7.6-3.5,13.5-10.5,17.8c-7,4.3-16.4,6.5-28.1,6.5c-11.3,0-20.5-2.3-27.5-6.9
			c-7-4.6-10.5-10.4-10.5-17.4c0-7.4,3.6-12.8,10.9-16.2c-3.8-3.7-5.7-8.2-5.7-13.7c0-4.6,2.7-9.1,8.2-13.3
			c-6.3-5.3-9.5-12.3-9.5-21c0-2.8,0.5-5.5,1.4-8c0,0,2.1-5.7,7.7-10.7C512.9,65.6,525.7,62.5,540.5,64.3z M530.1,146.2
			c-6.9-0.8-11.8-0.4-14.7,1.3c-2.9,1.6-4.4,3.6-4.4,5.8c0,3.2,1.9,5.5,5.7,7c3.8,1.5,8.5,2.2,14.2,2.2c6.3,0,11.1-0.6,14.6-1.7
			c3.5-1.2,5.2-2.9,5.2-5.3c0-1.8-1.6-3.6-4.7-5.4C542.8,148.3,537.5,147,530.1,146.2z M531.2,81.2c-5.2,0-9.1,1.1-11.9,3.4
			c-2.8,2.3-4.1,4.7-4.1,7.4c0,3.2,1.4,5.8,4.1,7.8c2.8,2,6.7,3.1,11.9,3.1c4.9,0,8.7-1.1,11.4-3.4c2.7-2.3,4-4.8,4-7.5
			c0-2.7-1.3-5.2-4-7.4C539.9,82.3,536.1,81.2,531.2,81.2z"/>
	</g>
</g>
<path d="M604.1,99.7v38.6c0,1.5-1.2,2.8-2.8,2.8h-17c-1.5,0-2.8-1.2-2.8-2.8V66.2c0-1.5,1.2-2.8,2.8-2.8h12.9c1.1,0,2,0.7,2.4,1.7
	c0.7,1.9,3.4,2.3,4.9,0.9c3.8-3.4,8.6-5.1,14.6-5.1c4.5,0,8.9,1.1,13.2,3.2c1.3,0.6,1.8,2.2,1.2,3.5l-6.4,13
	c-0.7,1.4-2.4,1.9-3.9,1.4c-1.9-0.7-3.7-1-5.4-1c-3.8,0-6.9,1.6-9.6,4.6C605.5,88.6,604.1,93.3,604.1,99.7z"/>
<path d="M690.3,136.9c-0.6-1.9-3.1-2.6-4.8-1.4c-4.2,2.9-9.1,4.6-14.5,5c-9,0.5-16.4-1.4-22.3-5.6c-5.9-4.2-8.8-10.1-8.8-17.7
	c0-6.4,3-11.8,9-16.2c6-4.5,14.2-7.5,24.7-9c4.7-0.6,7.8-1.5,9.3-2.7c1.7-1.2,2.5-2.8,2.5-4.7c0-1.8-1.2-3.2-3.6-4.2
	c-2.3-1.1-5.2-1.5-8.6-1.2c-5.6,0.3-10.8,2.3-15.6,6.1c-1.1,0.8-2.6,0.9-3.6,0l-11.2-9c-1.3-1-1.4-2.9-0.2-4.1
	c8.7-8.1,18.9-12.2,30.7-12.2c10.6,0,18.7,2.7,24.5,8.1c5.9,5.4,8.8,13.4,8.8,24.1v44.3c0,1.5-1.2,2.8-2.8,2.8h-10.6
	c-1.2,0-2.3-0.8-2.7-1.9L690.3,136.9z M685.3,108.2c0-2-2-3.3-3.9-2.8c-2.6,0.8-5.3,1.4-8.1,1.8c-4.2,0.5-7.1,1.6-8.7,3.4
	c-1.6,1.7-2.4,3.6-2.4,5.6c0,1.9,0.8,3.5,2.5,4.7c1.7,1.2,3.9,1.7,6.7,1.5c3.8-0.2,7.1-1.5,9.7-4.1c2.7-2.6,4.1-5.8,4.1-9.7V108.2z"
	/>
<path d="M748,57.6c0,1.5,1.2,2.9,2.9,2.9h9.8c1.5,0,2.9,1.2,2.9,2.9v12.5c0,1.5-1.2,2.9-2.9,2.9h-9.8c-1.5,0-2.9,1.2-2.9,2.9v33.5
	c0,2.6,0.7,4.5,2.1,5.9c1.1,0.9,2.9,1.5,5.3,1.9c1.5,0.2,2.9,1.4,2.9,3v12.7c0,1.5-1.1,2.8-2.7,2.8c-11.2,0.4-19-2-23.5-6.9
	c-4.9-5.4-7.4-12.7-7.4-21.8V81.6c0-1.5-1.2-2.9-2.9-2.9H717c-1.5,0-2.9-1.2-2.9-2.9V63.3c0-1.5,1.2-2.9,2.9-2.9h4.8
	c1.5,0,2.9-1.2,2.9-2.9V34.1c0-1.5,1.2-2.9,2.9-2.9h17.5c1.5,0,2.9,1.2,2.9,2.9V57.6z"/>
<g>
	<path d="M796.3,63.6c1.5,0,2.8,1.2,2.8,2.8v72.3c0,1.5-1.2,2.8-2.8,2.8h-17c-1.5,0-2.8-1.2-2.8-2.8V66.4c0-1.5,1.2-2.8,2.8-2.8
		H796.3z"/>
	<path d="M801.8,42.6c0,7.8-6.3,14.1-14.1,14.1s-14.1-6.3-14.1-14.1c0-7.8,6.3-14.1,14.1-14.1S801.8,34.9,801.8,42.6z"/>
</g>
<path class="st0" d="M847.7,62.6c10.7,0,19.9,3.4,27.6,10.2c7.6,6.7,11.5,16.3,11.5,28.8s-3.8,22.1-11.5,28.9
	c-7.6,6.7-16.8,10.1-27.6,10.1c-10.7,0-19.9-3.4-27.6-10.1c-7.6-6.8-11.5-16.5-11.5-28.9s3.8-22,11.5-28.8
	C827.8,66,837,62.6,847.7,62.6z M848.1,119.5c10,0,18.1-8,18.1-17.9s-8.1-17.9-18.1-17.9c-10,0-18.1,8-18.1,17.9
	S838.1,119.5,848.1,119.5z"/>
<path d="M917.7,100.2v38.6c0,1.5-1.2,2.8-2.8,2.8h-17c-1.5,0-2.8-1.2-2.8-2.8V66.6c0-1.5,1.2-2.8,2.8-2.8h13c1.1,0,2.1,0.6,2.5,1.7
	l0.1,0.2c0.8,1.7,3,2.2,4.6,1.2c4.3-2.8,9.6-4.3,15.9-4.3c10,0,18.2,3.4,24.4,10.1c6.3,6.8,9.4,15.4,9.4,26.2v39.8
	c0,1.5-1.2,2.8-2.8,2.8h-17c-1.5,0-2.8-1.2-2.8-2.8v-38.6c0-7.1-1.4-12-4-14.8c-2.8-2.6-6-4-9.8-4c-3.9,0-7.1,1.4-9.8,4
	C918.9,88.1,917.7,93,917.7,100.2z"/>
<path d="M67.4,76.1l17.4,8.3c2.7,1.3,5.7-0.7,5.7-3.6V64.2c0-2.9-3.1-4.9-5.7-3.6l-17.4,8.3C64.4,70.3,64.4,74.6,67.4,76.1z"/>
<path d="M66,127.1c1.7,0.7,42.4,17.5,65.9-3.7c1.8-1.6,13.4-12.2,11.3-23.6c-2.5-13.6-23.8-25-53.9-23.2c-0.2-3.9-0.3-7.7-0.5-11.6
	c6.2-1.6,19.1-4.1,34,0.5c3.5,1.1,29.4,9,33.4,27.2c4.7,21.1-21.6,48.6-49.7,50.4C85.2,144.4,69.7,130.6,66,127.1z"/>
<path d="M127.1,103.2l-17.6-7.8c-2.7-1.2-5.7,0.8-5.6,3.8l0.5,16.5c0.1,2.9,3.2,4.8,5.8,3.4l17.1-8.8
	C130.3,108.9,130.2,104.5,127.1,103.2z"/>
<path d="M127,52.2c-1.7-0.7-42.9-16.3-65.7,5.6c-1.8,1.7-13,12.6-10.6,23.9c2.9,13.5,24.5,24.3,54.5,21.6c0.3,3.9,0.6,7.7,0.8,11.6
	c-6.1,1.8-19,4.6-34,0.5c-3.5-1-29.6-8.1-34.2-26.2C32.5,68.3,58,40,86,37.4C107.3,35.4,123.2,48.8,127,52.2z"/>
</svg>
