<?xml version="1.0" encoding="UTF-8"?>
<svg id="Capa_1" data-name="Capa 1" xmlns="http://www.w3.org/2000/svg" viewBox="0 0 262.67 53.32">
  <defs>
    <style>
      .cls-1 {
        fill: #f6ab3e;
      }

      .cls-2 {
        letter-spacing: 0em;
      }

      .cls-3 {
        fill: #f5aa3e;
      }

      .cls-4 {
        fill: #f5aa3f;
      }

      .cls-5 {
        fill: #f5ac40;
      }

      .cls-6 {
        fill: #f6aa3f;
      }

      .cls-7 {
        letter-spacing: 0em;
      }

      .cls-8 {
        fill: #f6aa3d;
      }

      .cls-9 {
        fill: #f7ac3e;
      }

      .cls-10 {
        fill: #f5aa40;
      }

      .cls-11 {
        font-family: Urbanist-SemiBold, Urbanist;
        font-size: 48px;
        font-weight: 600;
      }

      .cls-12 {
        letter-spacing: .01em;
      }
    </style>
  </defs>
  <path class="cls-8" d="M21.22,40.6v-3.41c0-3.5,3.35-8.79,6-10.98,10.85-8.95,27.4-1.95,28.32,12.09.03.4.12,2.3-.27,2.3H21.22Z"/>
  <path class="cls-4" d="M41.89,19c-2.4-.34-4.79-.16-7.2,0l-.32-9.09C35.59,6.58,36.77,3.21,38.29,0c.16,0,.8,1.56.92,1.84,1.32,3.18,3.14,7.03,3.06,10.43,0,.39-.18.75-.19,1.1-.05,1.89.03,3.75-.19,5.63Z"/>
  <path class="cls-3" d="M22.14,26.94c-.35.27-.41-.35-.63-.55-2.05-1.86-4.38-3.5-6.27-5.55l-4.53-9.4,9.76,3.61c2.37,2.19,4.42,4.67,6.66,7-1.41,1.12-2.84,2.17-4.05,3.51-.23.26-.86,1.33-.93,1.38Z"/>
  <path class="cls-8" d="M65.88,11.62c-1.53,3.24-3.04,6.53-4.91,9.58l-5.98,5.46h-.56c-1.37-1.83-3.13-3.3-4.98-4.62l6.76-6.89c2.9-.96,6.02-2.64,8.92-3.45.25-.07.48-.13.74-.09Z"/>
  <path class="cls-10" d="M17.71,40.78l-17.71-.28c.99-.78,1.95-1.63,2.96-2.39s5.38-4.03,6.19-4.15c1.18-.17,2.23.16,3.3.18.86.01,5.68-.17,5.92.17-.42,2.13-.78,4.28-.66,6.46Z"/>
  <path class="cls-6" d="M76.77,40.59h-17.9c-.06-1.11.09-2.31,0-3.41-.04-.53-.59-2.55-.54-2.75.09-.3.38-.28.62-.31,1.47-.17,3.45.04,5,.02,1.23-.02,2.66-.45,3.97-.11.6.16,5.03,3.44,5.89,4.08,1.02.76,2.04,1.61,2.96,2.48Z"/>
  <path class="cls-1" d="M24.72,5.53s.22.57.4.8c3.15,4.02,5.89,8.38,8.94,12.47.12.21.1.35-.11.48-.27.17-2.37.64-3,.87-1.26.48-2.41,1.19-3.64,1.61l-2.96-16.14c-.02-.16.35-.11.37-.09Z"/>
  <path class="cls-9" d="M42.44,19.19l9.78-13.65-3.04,16.06c-.17.26-.25.16-.47.1-.65-.16-2.09-1.15-2.95-1.49-1.08-.42-2.22-.68-3.32-1.02Z"/>
  <path class="cls-5" d="M18.63,33.58l-13.28-8.86,16.05,2.49c.45.31-.66,1.47-.88,1.88-.78,1.39-1.52,2.92-1.88,4.49Z"/>
  <path class="cls-8" d="M71.04,24.91l-12.65,8.49-.42-.32c-.72-2.03-1.7-3.96-2.99-5.68l16.05-2.49Z"/>
  <text class="cls-11" transform="translate(79.52 41.32)"><tspan class="cls-7" x="0" y="0">s</tspan><tspan class="cls-2" x="20.45" y="0">an</tspan><tspan class="cls-7" x="75.31" y="0">ts</tspan><tspan x="112.42" y="0">o</tspan><tspan class="cls-12" x="139.3" y="0">f</tspan><tspan class="cls-2" x="156.91" y="0">t</tspan></text>
</svg>