<?xml version="1.0" encoding="UTF-8"?>
<svg id="Capa_2" data-name="Capa 2" xmlns="http://www.w3.org/2000/svg" viewBox="0 0 381.29 141.79">
  <defs>
    <style>
      .cls-1 {
        fill: #f6f1fc;
      }
    </style>
  </defs>
  <g id="Capa_1-2" data-name="Capa 1">
    <path class="cls-1" d="M323.28,0c.48,.37,.18,.53-.18,.69-1.21,.56-2.52,.71-3.8,.98-1.84,.4-3.75,.43-5.57,.38-2.57-.07-5.16-.04-7.74-.3-2.1-.21-4.25-.26-6.34-.01-2.82,.33-4.45,4.64-2.92,7.26,.83,1.43,2.11,1.96,3.68,2.02,2.5,.09,5,.26,7.37,1.19,3.1,1.22,5.11,3.34,5.42,6.77,.43,4.79-1.79,7.79-6.49,9.07-2.93,.8-5.9,1.14-8.91,1.45-2.35,.24-4.76,.28-6.96,1.41-1.63,.83-2.28,2.21-2.31,3.87-.03,1.62,.56,3,2.16,3.82,2.32,1.19,4.83,1.59,7.35,1.87,3.28,.35,6.58,.52,9.88,.51,.97,0,1.68,.81,1.68,1.78,0,1.14-.51,1.76-1.62,1.79-5.42,.12-10.84-.02-16.1-1.49-3.08-.86-5.82-2.32-6.72-5.77-1.35-5.17,1.28-9.37,6.61-10.7,2.52-.63,5.11-.63,7.66-.96,2.71-.35,5.45-.57,7.95-1.88,1.34-.7,2.19-1.67,2.21-3.25,.03-1.83-.48-3.37-2.18-4.34-1.94-1.11-4.05-1.32-6.22-1.31-2.25,0-4.31-.53-6.08-2.04-1.14-.97-1.93-2.19-2.25-3.57-.72-3.1-.5-6.09,1.82-8.6,.17-.18,.28-.39,.28-.64h28.3Z"/>
    <path class="cls-1" d="M359.49,141.79c.48-1.83-.47-4.05-2.16-5.28-2.49-1.81-5.36-2.57-8.31-3.09-2.93-.52-5.89-.2-8.84-.24-4.31-.05-8.63,.06-12.95-.04-3.58-.08-7.15-.34-10.54-1.65-5.92-2.29-8.31-7.17-7.05-13.18,.67-3.2,2.95-5.25,5.85-6.49,3.58-1.53,7.4-2.1,11.26-2.35,1.41-.09,2.01,.46,2.04,1.59,.04,1.13-.65,1.79-1.92,1.99-3.13,.49-6.31,.75-9.3,1.92-2.56,1-4.43,2.62-4.58,5.53-.16,3.12,1.02,5.54,3.96,7,2.52,1.25,5.21,1.76,7.96,1.8,6.75,.09,13.51-.04,20.26,.05,4.55,.06,8.94,.96,12.94,3.25,3.52,2.02,5.48,4.98,5.22,9.18h-3.84Z"/>
    <path class="cls-1" d="M296.42,141.79c0-5.13-2.22-7.81-7.64-9.09-3.4-.8-6.68-1.84-9.42-4.11-2.15-1.78-3.52-4.03-4.05-6.82-1.02-5.33,2.49-9.29,6.15-11.32,2.66-1.48,5.64-1.89,8.51-2.68,2.01-.56,3.95-1.29,5.25-3.07,2.6-3.55,1.02-10.72-4.88-12.02-1.22-.27-2.46-.07-3.66-.44-.94-.28-1.45-.87-1.49-1.78-.04-.97,.83-1.83,1.83-1.84,7.11-.1,12.89,4.04,13.03,11.95,.09,5.25-2.7,8.24-6.96,10.05-2,.85-4.12,1.17-6.2,1.69-2.66,.66-4.96,1.9-6.79,3.97-1.32,1.49-1.62,4.3-.66,6.44,1.24,2.76,3.57,4.21,6.24,5.21,2.9,1.08,6.03,1.5,8.78,3.04,3.02,1.7,4.77,4.21,5.35,7.61,.19,1.07,.21,2.13,.21,3.2h-3.6Z"/>
    <path class="cls-1" d="M257.57,141.79c-2.52-7.08-2.64-14.44-2.34-21.8,.18-4.55,.89-9.08,2.61-13.37,.49-1.23,1.12-2.38,2.14-3.27,.98-.86,2.16-.87,3.13,.02,1.72,1.58,2.45,3.71,3.05,5.86,1.18,4.26,1.66,8.62,1.79,13.05,.06,1.95-.06,3.87-.08,5.81-.04,4.19-.72,8.29-1.88,12.31-.13,.46-.32,.9-.26,1.4h-8.15Zm6.73-16.34c-.05-2.57-.08-4.31-.22-6.06-.28-3.58-.78-7.09-1.96-10.49-.12-.35-.09-.95-.51-.97-.51-.03-.56,.58-.7,.98-1.47,4.33-1.86,8.83-2.13,13.34-.21,3.46,.05,6.92,.49,10.35,.34,2.63,.71,5.27,1.76,7.75,.13,.31,.1,.86,.53,.84,.49-.02,.42-.6,.54-.94,1.74-5.06,2.13-10.31,2.19-14.79Z"/>
    <path class="cls-1" d="M231.91,141.79c.29-2.67-.5-5.1-1.58-7.49-.83-1.81-1.44-3.73-1.71-5.69-.43-3.21,.88-6.31,4.79-6.87,1.83-.26,3.49,.62,5.04,1.57,1.19,.73,2.39,1.44,3.67,2.01,.97,.44,1.96,.66,3,.18,1.37-.63,1.58-1.96,.62-3.1-1.32-1.59-3.14-2.25-4.97-2.92-1.61-.59-3.23-1.16-4.74-1.98-1.35-.74-2.54-1.67-3.2-3.11-1.01-2.22-.08-4.83,2.15-5.84,.97-.44,2.03-.7,3.06-.98,1.53-.42,2.06-1.49,1.3-2.87-.38-.69-.83-1.32-1.54-1.79-1.14-.74-1.3-2.02-.49-2.98,.63-.74,1.84-.68,2.79,.1,1.54,1.27,2.72,2.73,3.16,4.74,.57,2.55-.86,5.29-3.33,6.12-.94,.32-1.93,.49-2.87,.81-1,.35-1.14,.96-.36,1.68,1.45,1.32,3.31,1.89,5.11,2.51,2.47,.86,4.79,1.88,6.6,3.9,2.06,2.29,2.35,5.35,.36,7.58-1.54,1.72-3.95,2.66-6.98,1.77-2.34-.68-4.2-2.27-6.39-3.22-.44-.19-.84-.43-1.35-.44-1.09,0-1.6,.47-1.67,1.56-.16,2.36,.79,4.45,1.67,6.52,1.12,2.64,1.81,5.33,1.69,8.21h-3.84Z"/>
    <path class="cls-1" d="M52.52,141.79c.35-1.9,1.61-3.27,2.84-4.6,4.13-4.47,9.26-7.49,14.81-9.83,.61-.26,.91-.62,1.13-1.24,1.92-5.56,3.48-11.22,4.5-17.02,.08-.46,.17-.97,.42-1.35,.47-.69,1.16-1.15,2.05-.86,1.02,.33,1.5,1.12,1.32,2.14-.36,2.11-.79,4.21-1.27,6.29-.71,3.1-1.57,6.16-2.59,9.17-.34,1.01,.04,.97,.78,.77,3.44-.92,6.94-1.32,10.5-1.22,.81,.02,1.58,.17,2.36,.3,.98,.16,1.47,.98,1.41,1.82-.05,.87-.57,1.67-1.66,1.73-.92,.05-1.83-.19-2.73-.2-4.13-.04-8.13,.73-12.03,2.07-.34,.12-.55,.3-.67,.61-1.47,3.79-3.05,7.52-5.06,11.06-.06,.1-.05,.23-.07,.35h-4.32c.09-.26,.13-.55,.28-.78,1.59-2.45,2.81-5.08,3.98-7.74,.12-.28,.44-.58,.18-.87-.29-.31-.59,.05-.84,.17-3.87,1.88-7.29,4.38-10.2,7.56-.42,.46-.89,.94-.84,1.65h-4.32Z"/>
    <path class="cls-1" d="M173.39,0c0,7.42,.11,14.85-.04,22.27-.08,4.09-1,8.03-3.7,11.34-1.47,1.8-3.34,2.94-5.6,3.37-3.16,.6-6.19,.28-8.79-1.82-2.35-1.89-3.4-4.56-4.17-7.36-.72-2.6-.91-5.3-1.39-7.95-.19-1.06,.58-2,1.63-2.12,1.17-.14,2,.66,2.16,2.03,.36,2.99,.75,5.98,1.74,8.85,1.06,3.09,3.14,4.82,5.76,4.94,3.64,.17,6.15-1.75,7.33-4.79,1.03-2.66,1.44-5.45,1.46-8.28,.05-6.82,.02-13.65,.02-20.47h3.6Z"/>
    <path class="cls-1" d="M0,41.92c2-1.14,4.31-.81,6.43-1.41,4.51-1.29,8.29-3.55,10.42-7.87,2.54-5.16,1.74-13.32-2.83-17.6-3.24-3.03-6.97-4.78-11.28-5.43-.99-.15-1.87-.51-2.74-.97v-2.16c2.21-1.43,4.39-.4,6.52,.17,4.38,1.17,8.15,3.39,11.15,6.83,2.26,2.59,3.52,5.66,4.09,9.01,.62,3.68,.26,7.29-1.12,10.76-1.39,3.47-3.74,6.15-6.95,8.09-3.5,2.12-7.26,3.34-11.39,3.5-.94,.03-1.54-.49-2.3-.75v-2.16Z"/>
    <path class="cls-1" d="M111.52,0c-.45,2.14-2.01,3.25-3.86,4.04-1.94,.82-3.98,.56-6.01,.38-2.44-.21-4.82-.84-7.33-.4-2.85,.5-4.77,2.16-6.11,4.51-1.68,2.93-2.47,6.15-2.88,9.51-.24,1.95-.13,3.89-.19,5.84-.04,1.2-.68,1.96-1.73,1.98-1.08,.03-1.76-.66-1.87-1.84-.55-5.45,.41-10.69,2.58-15.66,1.76-4.04,4.64-7.02,9.21-7.89,.29-.06,.41-.21,.44-.47,1.84,0,3.68,0,5.52,0,.07,.13,.13,.37,.22,.38,1.9,.21,3.79,.77,5.71,.51,.6-.08,1.5,.05,1.75-.89h4.56Z"/>
    <path class="cls-1" d="M98.81,141.79c-.67-1.11-2.01-1.32-2.9-2.15-1.19-1.12-2.45-2.16-3.37-3.53-.7-1.05-.59-2.36,.21-2.9,.92-.62,2.06-.3,2.87,.8,3.26,4.42,9.23,6.81,14.07,5.65,4.31-1.04,7.42-4.67,8.08-9.19,.48-3.26,.03-6.31-1.43-9.24-.58-1.16-.25-2.27,.75-2.78,.86-.45,1.96-.01,2.58,1.09,1.08,1.94,1.71,4.05,1.88,6.23,.37,4.64-.37,9.05-3.4,12.81-.62,.77-1.32,1.48-2.14,2.07-.43,.31-.99,.54-1.13,1.15h-16.07Z"/>
    <path class="cls-1" d="M135.5,141.79c2.21-4.39,3.94-9.06,7.37-12.74,1.71-1.83,3.87-2.38,6.22-1.6,2.4,.8,3.46,2.76,3.92,5.13,.61,3.11-.06,6.15-.48,9.2h-3.6c.02-.51-.03-1.05,.08-1.54,.51-2.23,.44-4.49,.37-6.75-.03-1.11-.52-2.19-1.59-2.62-1.06-.43-1.84,.34-2.58,1.06-1.42,1.39-2.22,3.19-3.13,4.89-.85,1.6-1.88,3.14-2.28,4.95h-4.32Z"/>
    <path class="cls-1" d="M187.3,141.79c.61-2.1,2.25-3.34,3.98-4.34,4.57-2.63,9.56-2.14,13.62,1.23,1,.83,1.82,1.87,2.31,3.11h-19.9Z"/>
    <path class="cls-1" d="M221.59,141.79c.22-2.06,.98-3.99,1.34-6.02,.21-1.2-.08-1.63-1.32-1.64-1.27,0-2.55-.09-3.8,.23-1.33,.35-2.55,.75-3.3,2.09-.6,1.07-1.71,1.27-2.67,.68-.79-.48-1-1.53-.55-2.56,.79-1.78,2.3-2.69,4.01-3.33,2.54-.95,5.21-.92,7.85-.67,1.9,.18,3.38,2.05,3.49,3.97,.12,2.11-.6,4.07-1.03,6.07-.08,.39-.2,.77-.18,1.17h-3.84Z"/>
    <path class="cls-1" d="M160.92,0c-.05,1.11,.47,2.18,.14,3.31-1.06,3.74-3.72,4.61-7.04,3.99-3.67-.69-6.75-2.78-9.93-4.6-1.11-.63-2.22-1.25-3.32-1.9-.27-.16-.81-.34-.24-.8h6.95c.02,.21,.09,.37,.28,.49,2.37,1.48,4.82,2.79,7.58,3.31,1.52,.29,2.38-.89,1.83-2.38-.18-.48-.39-.95-.58-1.43,1.44,0,2.88,0,4.32,0Z"/>
    <path class="cls-1" d="M306.97,141.79c-.08-.55,.29-.86,.61-1.22,2.4-2.62,5.3-4.18,8.88-4.58,4.53-.5,8.47,.61,11.71,3.87,.55,.56,1.1,1.13,1.34,1.92h-5.04c-.14-.64-.71-.83-1.19-1.06-3.4-1.64-6.81-1.53-10.2,.06-.44,.21-.97,.4-1.08,1h-5.04Z"/>
    <path class="cls-1" d="M126.86,0c.25,1.61,1.29,2.8,2.24,4,1.82,2.27,3.88,4.32,6.24,6.05,.41,.3,.77,.7,1.1,1.1,.63,.73,.71,1.56,.06,2.28-.64,.7-1.5,1-2.35,.37-2.51-1.84-4.86-3.84-6.88-6.23-1.49-1.77-2.91-3.58-3.81-5.73-.25-.59-.5-1.18-.44-1.84h3.84Z"/>
    <path class="cls-1" d="M288.74,0c.15,3.93-2.91,6.51-6.62,7.19-2.63,.48-5.28,.27-7.92,.23-1.18-.02-1.99-.76-2-1.78,0-1.01,.8-1.78,1.97-1.8,1.59-.03,3.19,0,4.79,0,1.2,0,2.36-.21,3.5-.58,1.6-.51,2.56-1.53,2.68-3.25h3.6Z"/>
    <path class="cls-1" d="M33.81,0c.83,1.29,2.14,2.08,3.27,3.04,2.08,1.77,4.24,3.45,6.51,4.99,.87,.59,1.07,1.91,.5,2.65-.68,.9-1.66,1.09-2.63,.4-2.62-1.85-5.17-3.8-7.61-5.89-1.56-1.34-3.18-2.63-4.61-4.13-.3-.31-.7-.55-.7-1.06h5.28Z"/>
    <path class="cls-1" d="M159.24,141.79c0-1.61,.66-3.09,.97-4.64,.56-2.79,.79-5.63,1.2-8.44,.17-1.18,.8-1.63,1.98-1.54,.92,.07,1.64,.84,1.59,1.86-.19,3.84-.82,7.62-1.73,11.35-.11,.47-.19,.93-.18,1.41h-3.84Z"/>
    <path class="cls-1" d="M4.08,141.79c1.03-2.04,2.96-2.84,4.96-3.31,3.61-.84,7.09-.09,10.45,1.32,.95,.4,1.89,.84,2.82,1.28,.31,.15,.7,.25,.71,.71H4.08Z"/>
    <path class="cls-1" d="M203.85,0c.59,2.46,2.11,4.32,3.98,5.92,1.05,.9,1.42,1.99,.78,2.86-.77,1.03-1.62,1.15-2.88,.19-2.99-2.3-4.91-5.35-5.95-8.96h4.08Z"/>
    <path class="cls-1" d="M77.46,141.79c.72-2.13,2.92-3.91,4.98-4.08,2.81-.23,5.09,.61,6.55,3.16,.16,.29,.24,.59,.22,.91h-11.75Z"/>
    <path class="cls-1" d="M42.93,141.79c-.01-.49,.38-.65,.71-.86,1.12-.72,2.02-1.67,2.85-2.68,.7-.85,1.77-1.03,2.62-.42,.84,.61,.98,1.55,.37,2.53-.29,.47-.73,.85-.81,1.43h-5.76Z"/>
    <path class="cls-1" d="M340.54,0c-.42,1.58-1.48,2.77-2.61,3.83-.56,.52-1.5,.46-2.18-.13-.64-.57-.93-1.23-.46-2.11,.27-.51,.8-.92,.7-1.59h4.56Z"/>
    <path class="cls-1" d="M193.29,0c-.04,1.81-.6,2.6-1.86,2.63-1.33,.04-1.94-.78-1.98-2.63h3.84Z"/>
    <path class="cls-1" d="M106.96,0c-.24,.94-1.15,.81-1.75,.89-1.92,.26-3.81-.3-5.71-.51-.09,0-.14-.25-.22-.38,2.56,0,5.12,0,7.67,0Z"/>
    <path class="cls-1" d="M42.22,34.63c.14,3.37-.39,7.3-.27,11.25,.09,2.73,1.92,4.43,4.96,4.42,2.72,0,4.37-1.67,4.42-4.38,.06-3.32,.35-6.6,2.36-9.44,1.46-2.06,3.5-3.02,5.99-3.2,2.38-.17,4.55,.26,6.21,2.08,1.62,1.79,2.45,3.98,2.93,6.31,.68,3.27,.96,6.58,1.24,9.9,.12,1.41,.42,2.83,1.11,4.12,.83,1.56,2.14,2.26,3.89,2.28,1.75,.02,3.08-.62,3.88-2.23,.92-1.84,1.33-3.83,1.63-5.83,.56-3.74,.55-7.52,.73-11.28,.06-1.17,.56-1.7,1.68-1.74,.99-.04,1.9,.63,1.91,1.55,.05,5.81-.02,11.62-1.91,17.2-1.04,3.05-2.85,5.5-6.35,5.89-5.88,.65-8.95-2.46-9.91-7.66-.51-2.8-.64-5.66-1.01-8.49-.32-2.4-.75-4.75-2.06-6.89-1.57-2.57-5.67-1.68-6.92,.1-1.1,1.56-1.47,3.35-1.52,5.18-.04,1.35-.11,2.71-.31,4.04-.44,2.85-3.17,5.54-6.05,6.06-2.8,.51-5.33-.05-7.64-1.77-2.05-1.53-2.99-3.62-3.03-6.06-.1-4.93,.65-9.85,.43-14.78-.1-2.29-.26-4.61-1.26-6.74-1.04-2.22-4.13-2.74-6-1.09-1.13,1-1.49,2.33-1.78,3.69-.19,.89-.24,1.81-.28,2.72-.04,1.03-.46,1.65-1.52,1.78-1.13,.14-1.77-.46-2.03-1.44-1.01-3.83,1.61-9.33,5.28-10.78,4.33-1.71,8.52-.31,10.08,4.39,.37,1.1,.63,2.22,.84,3.34,.44,2.28,.26,4.6,.29,7.49Z"/>
    <path class="cls-1" d="M129.51,24.64c4.25-.01,8.74,1.21,12.92,3.53,1.38,.77,1.72,1.76,1.15,2.82-.51,.93-1.62,1.12-2.95,.43-2.41-1.26-4.92-2.2-7.61-2.72-3.85-.74-7.58-.35-11.29,.69-2.82,.79-5.47,1.97-7.91,3.58-.26,.17-.64,.28-.5,.69,.11,.3,.42,.3,.71,.34,6.02,.93,10.91,5.22,12.15,11.15,1.12,5.36-.2,11.13-5.9,14.35-2.66,1.5-5.62,2.05-8.75,1.63-2.71-.36-5.23-1.07-7.41-2.72-2.65-2-4.24-4.65-4.84-7.95-.63-3.44,.21-6.53,1.81-9.52,.17-.32,.61-.72,.2-1.06-.29-.24-.65,.16-.96,.3-3.16,1.47-5.89,3.47-7.85,6.42-.55,.82-1.75,.95-2.55,.38-.76-.54-.94-1.79-.36-2.69,1.65-2.56,3.96-4.44,6.5-6.05,2.86-1.81,6-2.94,9.26-3.73,.7-.17,1.22-.49,1.74-.96,5.22-4.77,11.27-7.79,18.35-8.71,1.2-.16,2.38-.16,4.12-.23Zm-16.05,32.86c1.6,.14,3.51-.36,5.26-1.39,4.61-2.71,5.18-9.49,2.61-13.33-2.83-4.22-6.98-5.7-11.94-5.15-1.02,.11-1.85,.54-2.54,1.36-.93,1.1-1.77,2.26-2.45,3.52-1.95,3.63-2.49,7.38-.02,10.94,2.02,2.92,5.09,4.08,9.07,4.06Z"/>
    <path class="cls-1" d="M312.75,72.68c-.34,2.06-.9,3.95-1.85,5.72-2.07,3.84-5.07,6.5-9.4,7.45-5.27,1.15-10.98-.52-13.95-5.01-3.78-5.72-2.79-14.1,1.95-18.68,1.97-1.9,4.37-2.88,7.13-3.28,3.27-.48,6.12,.45,8.94,1.85,.3,.15,.66,.53,.97,.23,.32-.31-.09-.65-.22-.94-1.44-3.13-3.41-5.83-6.29-7.81-.79-.54-1.01-1.73-.49-2.57,.56-.91,1.43-1,2.3-.57,2.08,1.04,3.59,2.75,4.97,4.56,2.65,3.47,4.39,7.37,5.19,11.66,.09,.49,.35,.78,.66,1.09,4.78,4.92,7.74,10.81,8.87,17.51,1.09,6.42,.05,12.6-3.25,18.31-.68,1.17-1.72,1.57-2.68,1.02-1.02-.58-1.23-1.75-.53-2.91,1.68-2.77,2.55-5.79,2.95-8.99,.84-6.64-1.14-12.55-4.6-18.09-.08-.13-.19-.26-.3-.37-.05-.05-.13-.07-.37-.19Zm-3.87-1.5c-.02-1.64,.28-3.41-1.36-4.65-1.84-1.4-3.68-2.83-5.92-3.51-3.65-1.12-7.07-.71-9.82,2.14-2.12,2.2-2.87,4.98-2.8,8,.16,6.73,5.07,10.18,11.56,9.1,4.78-.79,8.85-6.28,8.34-11.08Z"/>
    <path class="cls-1" d="M174.59,126.4c-.07,.92,.05,2.01,.41,3.09,.33,.97,.76,1.79,1.68,2.38,1.08,.69,1.34,1.87,.77,2.77-.48,.75-1.63,.94-2.7,.41-1.78-.89-2.69-2.51-3.21-4.27-.68-2.28-.97-4.61-.61-7.04,.48-3.22,3.14-4.43,5.98-3.86,2.14,.43,4.25,.99,6.38,1.47,1.52,.35,2.52-.18,2.83-1.56,.88-3.92-.77-4.89-3.99-5.29-3.17-.39-5.9,1.02-8.71,2.13-1.75,.69-3.54,1.14-5.44,1.24-4.51,.24-7.27-3.9-5.13-8.2,.87-1.75,1.91-3.4,2.79-5.15,.57-1.13,.85-2.32,.04-3.51-.66-.96-1.63-1.23-2.56-.52-1.09,.82-1.94,1.82-2.48,3.13-1.12,2.71-1.85,5.6-3.58,8.04-1.81,2.55-4.53,3.11-6.95,1.39-1.17-.82-1.47-2.13-1.87-3.37-.14-.45-.2-.93-.32-1.39-.35-1.36-1.48-1.89-2.75-1.24-.74,.38-1.39,.86-1.88,1.61-.75,1.15-1.86,1.36-2.76,.67-.92-.7-.97-1.96-.14-2.96,1.3-1.56,2.78-2.79,4.87-3.17,2.76-.49,5.16,.86,6.05,3.56,.29,.87,.45,1.77,.74,2.64,.38,1.14,.85,1.24,1.68,.41,1.17-1.17,1.59-2.73,2.17-4.21,.71-1.77,1.17-3.66,2.27-5.24,1.12-1.61,2.49-2.92,4.38-3.73,2.8-1.21,6.93,1.29,7.23,5.08,.21,2.63-.93,4.78-2.17,6.93-.57,1-1.29,1.93-1.59,3.06-.48,1.8,.56,2.83,2.4,2.5,2.69-.48,5.11-1.75,7.67-2.59,3.78-1.24,7.61-1.45,11.12,.75,2.38,1.49,3.04,3.9,2.76,6.64-.15,1.5-.43,2.91-1.38,4.11-1.67,2.11-3.96,2.18-6.32,1.8-1.64-.27-3.26-.73-4.88-1.12-2.62-.63-2.84-.45-2.84,2.62Z"/>
    <path class="cls-1" d="M246.29,53.13c-.21-4.06,2.74-6.84,6.24-8.31,3.33-1.4,6.94-1.63,10.41-2.45,2.73-.64,5.39-1.5,7.44-3.57,1.73-1.75,1.69-4.18,.03-5.99-2.61-2.84-6.09-3.81-9.66-4.54-3.64-.75-7.27-1.5-10.41-3.62-4.08-2.76-5.34-7.55-2.94-11.7,1.36-2.35,3.63-3.74,6.11-4.79,2.21-.93,4.54-1.43,6.88-1.89,1.05-.2,2.1,.48,2.37,1.53,.21,.81-.4,1.76-1.42,2.04-1.11,.3-2.27,.4-3.37,.71-2.43,.69-4.78,1.54-6.62,3.41-2.23,2.26-1.86,5.53,.75,7.41,2.82,2.02,6.11,2.64,9.38,3.28,3.48,.68,6.76,1.79,9.7,3.83,3.32,2.31,4.86,6,3.85,9.65-.64,2.31-2.3,3.85-4.27,5.09-3.31,2.08-7.03,2.88-10.82,3.49-2.39,.39-4.75,.88-6.96,2.01-3.6,1.84-3.86,5.26-1.81,8.24,1.56,2.26,4.03,2.94,6.58,3.41,1.15,.21,2.29,.21,3.45,.24,1.33,.04,2.13,.84,2.1,1.97-.03,1.07-.83,1.88-2.1,1.83-3.52-.14-7.04-.53-10.06-2.51-2.97-1.94-4.93-4.55-4.86-8.76Z"/>
    <path class="cls-1" d="M104.56,86.47c-.08,3.31-.65,6.53-2.63,9.26-2.78,3.84-6.61,5.46-11.55,3.88-3.01-.96-4.41-3.59-5.49-6.36-1.18-3.02-1.49-6.24-2.14-9.38-.56-2.72-1.52-5.25-3.27-7.46-1.52-1.92-4.43-2.11-6.25-.47-2.9,2.6-3.91,6.08-4.65,9.7-.74,3.63-1.52,7.24-3.6,10.42-1.82,2.79-4.47,4.22-7.72,4.2-3.61-.02-6.04-2.11-7.74-5.15-1.57-2.81-2.44-5.86-2.98-9.01-.2-1.16,.53-2.25,1.59-2.44,.91-.17,1.79,.52,2.04,1.72,.42,2.06,.81,4.12,1.64,6.07,.55,1.3,1.27,2.48,2.17,3.55,2.1,2.5,5.99,1.85,7.64-.61,1.74-2.6,2.57-5.53,3.14-8.56,.7-3.78,1.74-7.46,4.08-10.59,2.3-3.07,5.55-4.86,9.33-3.84,2.66,.72,4.42,2.58,5.71,4.92,1.84,3.32,2.63,6.95,3.19,10.67,.41,2.67,1.01,5.29,2.63,7.58,1.67,2.36,4.35,2.27,6.29,1.47,2.75-1.13,3.78-3.53,4.45-6.12,.4-1.53,.6-3.11,.54-4.72-.05-1.16,.82-2.03,1.87-2.05,.94-.02,1.7,.88,1.71,2.03,0,.44,0,.88,0,1.32Z"/>
    <path class="cls-1" d="M339.04,115.86c.15-3.2,1.13-5.55,2.36-7.78,2.58-4.67,5.45-9.17,7.79-13.97,.78-1.59,1.25-3.24,1.21-5.05-.07-2.74-1.93-3.41-3.98-2.59-3.09,1.23-5.48,3.46-7.66,5.93-1.03,1.16-2.08,2.29-3.03,3.53-.59,.78-1.84,.82-2.6,.22-.74-.58-.88-1.71-.26-2.57,.63-.86,1.28-1.73,2.02-2.5,2.44-2.55,4.82-5.19,7.93-6.99,1.93-1.11,3.95-2.02,6.23-1.59,3.04,.57,5.15,3.26,5.17,6.43,.03,3.55-1.51,6.61-3.11,9.65-2.49,4.71-5.57,9.1-7.7,14.01-.35,.82-.51,1.68-.66,2.53-.23,1.27,.96,2.2,2.18,1.79,1.63-.55,2.71-1.8,3.73-3.07,1.84-2.3,3.56-4.7,5.69-6.72,1.58-1.5,3.2-3.01,5.34-3.72,5.26-1.72,8.88,2.09,8.39,7.2-.23,2.41-.81,4.78-2.05,6.92-.94,1.61-2.45,1.68-3.38,.17-.39-.65-.19-1.19,.11-1.79,1.04-2.09,1.66-4.28,1.55-6.66-.09-2.07-1.6-3.14-3.5-2.3-2.19,.98-3.81,2.69-5.4,4.44-2.01,2.21-3.54,4.81-5.75,6.83-1.42,1.3-2.97,2.35-5,2.54-3.18,.29-5.89-2.56-5.61-4.87Z"/>
    <path class="cls-1" d="M141.17,46.47c4.62-.1,7.76,2.62,9.49,6.22,1.33,2.76,1.46,5.85,2.57,8.66,.9,2.28,2,4.42,4.35,5.62,2.88,1.47,6.64,.22,8.5-2.11,1.52-1.9,2.42-4.07,3.01-6.42,.63-2.55,1.33-5.08,2.85-7.29,1.67-2.43,3.97-3.87,6.83-4.4,2-.37,4.01-.49,6.01,.19,2.56,.86,4.31,2.63,5.65,4.87,1.22,2.03,2.08,4.19,2.47,6.54,.22,1.31-.24,2.25-1.36,2.48-1.11,.23-2.09-.43-2.29-1.7-.36-2.29-1.22-4.34-2.56-6.23-1.44-2.04-3.32-2.75-5.83-2.65-4.1,.16-6.12,2.5-7.3,6.07-.91,2.75-1.38,5.64-2.85,8.21-1.63,2.85-3.69,5.17-6.9,6.25-4.71,1.59-9.09,0-12.07-4.24-1.89-2.69-2.66-5.74-3.32-8.86-.46-2.17-1.18-4.27-2.8-5.84-2.29-2.21-5.09-2.01-7.8-1.09-3.09,1.05-4.63,3.46-4.97,6.67-.08,.79-.12,1.58-.27,2.36-.18,.92-.78,1.52-1.74,1.53-1.02,.01-1.72-.6-1.8-1.58-.44-5.98,2.99-12.14,9.76-13.03,.83-.11,1.65-.24,2.35-.21Z"/>
    <path class="cls-1" d="M232.66,58.92c-2.36-.1-5.22,.02-7.97,.99-3.69,1.3-3.75,4.2-2.31,6.7,.93,1.62,2.78,2.03,4.52,2.36,3.63,.68,7.3,.49,10.96,.48,3.74,0,7.49-.04,11.13,.98,3.69,1.03,6.62,3.66,6.93,7.85,.16,2.11,.13,4.29,1.35,6.22,1.46,2.31,3.61,3.66,6.08,4.57,2.81,1.04,5.74,1.49,8.73,1.75,2.11,.19,4.22,.14,6.33,.19,1.36,.04,2.14,.69,2.18,1.85,.03,1.17-.7,1.89-2.07,1.97-2.15,.14-4.3-.16-6.44-.29-3.48-.21-6.95-.78-10.23-2.08-4.61-1.83-8.11-4.71-9.19-9.83-.19-.93-.45-1.86-.37-2.82,.28-3.35-1.75-5.34-4.9-6.01-1.71-.37-3.45-.46-5.2-.56-2.35-.13-4.69-.26-7.04-.18-3.45,.12-6.91,.12-10.26-.76-3.39-.89-6.1-2.74-6.73-6.44-.73-4.25,.12-7.41,5.1-9.35,2.13-.83,4.36-1.07,6.65-1.23,2.35-.16,4.67-.23,7.01,.03,1.12,.12,1.92,.72,1.94,1.66,.03,1.13-.73,1.91-1.96,1.94-1.24,.03-2.48,0-4.23,0Z"/>
    <path class="cls-1" d="M109.84,108.78c.01-3.57-.2-7.17,.73-10.67,.68-2.56,1.78-4.86,4.13-6.33,1.42-.88,2.96-1.26,4.65-1.27,3.49-.02,6.5-1.16,8.48-4.21,1.31-2.02,2.11-4.28,2.6-6.63,.41-1.98,.63-3.98,.79-6,.16-1.99,.16-3.97,.21-5.96,.03-1.09,.84-1.86,1.81-1.85,.87,.01,1.74,.76,1.77,1.61,.15,5.54-.08,11.06-1.9,16.36-1.33,3.87-3.47,7.15-7.31,9.02-1.59,.78-3.3,1.32-5.05,1.23-4.72-.24-6.23,2.37-6.83,6.27-.81,5.22-.31,10.49-.51,15.74-.13,3.38-.6,6.72-2.78,9.56-1.11,1.44-2.59,2.22-4.27,2.63-2.45,.6-4.8,.42-6.89-1.23-1.92-1.53-2.77-3.64-3.28-5.91-.83-3.67-.78-7.42-.73-11.15,.01-.97,.35-1.79,1.29-2.25,.91-.44,1.9-.08,2.28,.84,.2,.48,.26,.99,.26,1.52-.02,2.27-.06,4.55,0,6.82,.05,1.83,.37,3.64,1.12,5.33,1.12,2.51,2.27,2.89,5.13,2.39,1.64-.29,2.55-1.44,3.14-2.97,.9-2.35,.96-4.81,1.12-7.26,.12-1.87,.02-3.75,.03-5.62Z"/>
    <path class="cls-1" d="M210.79,112.79c-2,.15-3.86-.32-5.75-.57-1.91-.26-3.82-.25-5.67,.37-1.94,.65-2.23,1.95-.71,3.3,1.59,1.41,3.59,2.04,5.56,2.65,4.38,1.36,8.88,2.05,13.44,2.43,.95,.08,1.56,.96,1.53,2.06-.03,1.11-.64,1.55-1.7,1.52-4.63-.13-9.14-.99-13.59-2.24-2.08-.59-4.11-1.31-5.97-2.4-1.87-1.1-3.61-2.37-3.94-4.78-.3-2.2,.58-3.92,2.34-5.11,1.46-1,3.16-1.38,4.95-1.54,2.92-.26,5.74,.39,8.6,.71,1.48,.17,2.95-.03,4.35-.52,1.54-.54,1.85-1.99,.78-3.25-1.11-1.3-2.56-2.13-4.04-2.93-3.61-1.95-7.4-3.59-10.85-5.82-4.74-3.06-6.91-7.6-7.08-13.17-.1-3.27,.1-6.51,.92-9.69,.3-1.17,1.12-1.84,2.08-1.7,1.04,.15,1.72,1.11,1.55,2.33-.24,1.72-.67,3.43-.83,5.16-.43,4.74,.06,9.25,3.77,12.78,1.13,1.08,2.55,1.75,3.89,2.53,3.72,2.16,7.82,3.65,11.33,6.17,1.75,1.26,3.26,2.73,3.49,5.16,.24,2.54-1.09,4.98-3.49,5.85-1.63,.6-3.31,.86-4.97,.71Z"/>
    <path class="cls-1" d="M237.2,39.28c-2.55-.39-5.32-1.08-8.09-1.76-2.47-.61-4.91-1.33-7.33-2.11-.25-.08-.55-.33-.75-.02-.09,.15,.02,.45,.09,.67,1.17,3.9,1.34,7.9,1.18,11.92-.07,1.93-1.21,2.87-2.66,2.36-1.04-.37-1.29-1.19-1.14-2.1,.64-3.98-.17-7.81-1.02-11.66-.45-2.04-1.36-3.32-3.53-4.06-4.84-1.65-9.38-4-13.46-7.13-2.33-1.79-4.38-3.8-5.11-6.8-.82-3.39,1.18-6.44,4.61-7.08,3.05-.57,5.52,.7,7.82,2.43,3.79,2.87,6.46,6.67,8.73,10.76,.87,1.56,1.76,3.14,2.32,4.85,.4,1.22,1.43,1.51,2.45,1.85,5.4,1.79,10.89,3.21,16.48,4.28,1.22,.23,1.89,1.02,1.78,2.1-.09,.91-.92,1.52-2.37,1.51Zm-22.81-10.46c-.09-.39-.1-.51-.15-.61-2.11-4.04-4.55-7.85-8.05-10.84-1.47-1.25-3.1-2.4-5.23-2.27-1.44,.09-2.26,1.2-1.95,2.61,.45,2.05,1.93,3.29,3.46,4.53,3.53,2.85,7.62,4.66,11.92,6.59Z"/>
    <path class="cls-1" d="M325.23,41.2c5.79,.07,11.35,1.08,16.16,4.53,3.07,2.2,4.78,5.25,4.91,9.11,.1,2.87-.29,5.7-.69,8.53-.18,1.24,.1,2.46,.85,3.5,1.08,1.5,2.63,1.3,4.13,1.03,2.05-.38,3.89-1.39,5.83-2.1,6.09-2.2,8.71-.35,12.13,3.62,1.03,1.2,1.92,2.53,2.93,3.75,.95,1.15,2.29,1.31,3.61,1,1.22-.29,1.64-1.37,1.93-2.51,.59-2.35,.57-4.71,.24-7.09-.09-.69-.27-1.46,.17-2.1,.39-.58,.97-.98,1.72-.9,.79,.08,1.42,.53,1.56,1.29,.38,2.06,.76,4.11,.45,6.25-.24,1.65-.36,3.29-1,4.87-1.02,2.52-2.89,3.89-5.52,4.07-2.48,.18-4.6-.77-6.21-2.7-1.32-1.58-2.44-3.32-3.9-4.81-2.7-2.76-3.86-2.2-6.77-1.29-2.42,.76-4.68,1.96-7.22,2.45-4.4,.85-8.47-2.37-8.6-6.84-.07-2.24,.24-4.45,.57-6.63,.88-5.72-1.44-9.17-6.39-11.25-4.21-1.78-8.65-2.3-13.2-2.18-1.46,.04-2.28-.58-2.31-1.63-.03-1.24,.8-1.94,2.32-1.95,.76,0,1.52,0,2.28,0Z"/>
    <path class="cls-1" d="M362.02,3.85c1.64-.02,2.2,.38,2.26,1.61,.06,1.2-.54,1.77-2.03,1.97-3.49,.47-6.9,1.21-9.99,3.01-1.88,1.1-3.5,2.47-3.56,4.87-.06,2.53,1.33,4.21,3.42,5.45,2.65,1.58,5.59,2.23,8.59,2.7,4.74,.74,9.4,1.73,13.64,4.09,2.63,1.46,4.96,3.3,5.61,6.46,.56,2.72-.03,5.19-1.99,7.29-3.18,3.4-7.34,4.8-11.68,5.85-1.19,.29-2.41,.52-3.65,.49-1.14-.03-1.91-.71-1.96-1.67-.05-1.05,.52-1.78,1.67-1.92,2.9-.35,5.7-1.06,8.39-2.19,1.88-.78,3.51-1.92,4.8-3.47,1.76-2.12,1.02-4.95-1.72-6.82-3.02-2.07-6.44-3.1-9.97-3.8-3.81-.76-7.72-1.11-11.33-2.68-3.12-1.35-5.79-3.23-6.98-6.62-1.4-4-.05-7.98,3.46-10.39,3.36-2.31,7.12-3.49,11.11-4.04,.31-.04,.62-.17,.93-.2,.32-.04,.64,0,.96,0Z"/>
    <path class="cls-1" d="M164.9,91.46c-5.85-.29-11.66-.5-17.17-2.58-1.42-.53-2.8-1.13-3.86-2.31-.94-1.05-1.01-2.24-.03-3.28,1.63-1.74,3.81-2.43,6-3.04,6.48-1.82,13.14-1.94,19.78-1.64,4.15,.19,8.29,.82,12.25,2.25,1.17,.42,2.28,.95,3.31,1.65,2.07,1.39,2.12,3.39,.11,4.82-1.55,1.1-3.31,1.74-5.12,2.23-4.24,1.14-8.55,1.78-12.95,1.68-.81-.02-1.55,.45-2.31,.21Zm-.44-3.78c2.22-.06,4-.09,5.79-.22,3.54-.26,7.01-.82,10.38-1.94,.36-.12,.89-.14,.85-.66-.03-.44-.55-.39-.86-.51-4.38-1.61-8.98-1.91-13.57-2.18-2.26-.13-4.53,.02-6.8,.18-3.58,.26-7.1,.75-10.52,1.82-.51,.16-1.38,.21-1.33,.78,.04,.53,.9,.62,1.45,.78,4.91,1.46,9.95,1.96,14.63,1.95Z"/>
    <path class="cls-1" d="M14.24,91.97c2.8,0,5.6-.11,8.39,.03,4.24,.2,5.86-1.71,6.62-5.6,.91-4.62,.32-9.3,.48-13.94,.1-2.7,.22-5.4,.97-8.01,1.38-4.85,4.17-6.81,8.44-6.89,4.54-.09,7.33,2.04,8.32,6.88,.54,2.63,.22,5.32,.24,7.99,.01,1.08-.85,1.85-1.82,1.83-1.02-.02-1.75-.85-1.76-1.99-.03-2.46,.18-4.94-.38-7.37-.54-2.34-1.73-3.46-3.7-3.57-2.8-.16-4.69,.88-5.47,3.11-.63,1.8-.96,3.69-.99,5.6-.05,3.47,.06,6.95-.04,10.41-.07,2.69-.24,5.39-.95,8.01-.94,3.52-2.94,6.08-6.64,6.94-1.15,.27-2.36,.39-3.54,.4-5.67,.04-11.35,.02-17.02,.02-.52,0-1.02-.05-1.53-.17-1.5-.37-1.82-.71-1.71-2.04,.08-.99,.87-1.61,2.13-1.62,3.32-.01,6.63,0,9.95,0Z"/>
    <path class="cls-1" d="M39.34,113.7c.06,6.31-1.61,11.67-5.09,16.39-2.41,3.27-5.79,5.16-9.78,5.92-5.12,.98-10.04,.37-14.72-1.93-1.07-.53-2.08-1.18-2.89-2.09-.79-.89-.82-2.08-.08-2.8,.8-.78,1.79-.71,2.75,.19,1.84,1.75,4.15,2.48,6.55,2.94,3.71,.72,7.37,.63,10.87-.98,3.44-1.58,5.33-4.5,6.83-7.81,1.42-3.15,2.01-6.47,1.94-9.85-.08-4.11-.98-8.11-2.81-11.85-.21-.43-.37-.88-.55-1.32-.4-.96-.15-1.74,.74-2.25,.92-.53,1.91-.31,2.49,.65,.61,1.02,1.13,2.11,1.53,3.23,1.41,3.87,2.35,7.83,2.26,11.56Z"/>
    <path class="cls-1" d="M60.63,28.74c-6.84,0-11.68-5.32-11.61-11.67,.07-6.39,5.34-11.72,12.28-11.36,5.67,.29,11.01,5.17,10.89,11.76-.11,6.07-5.36,11.42-11.56,11.27Zm-7.87-11.5c0,4.71,3.71,7.86,7.78,7.84,4.52-.02,7.98-3.26,7.93-7.95-.04-4.49-3.17-7.62-7.85-7.76-4.36-.13-7.87,3.5-7.87,7.87Z"/>
    <path class="cls-1" d="M329.31,31.86c-6.21,.28-11.66-5.43-11.56-11.62,.1-5.9,4.99-11.76,12.11-11.42,5.72,.27,11.01,4.72,11.07,11.49,.06,6.16-4.75,11.58-11.62,11.54Zm-7.71-11.5c-.42,4.03,3.59,8.01,7.71,7.87,4.4-.15,7.84-3.28,7.87-7.79,.03-4.48-3.47-8.02-7.92-7.97-3.93,.04-7.94,3.25-7.66,7.89Z"/>
    <path class="cls-1" d="M380.61,109.96c-.01,6-1.11,11.76-3.83,17.16-1.2,2.38-2.87,4.39-4.84,6.16-.91,.82-2.32,.76-3.15-.08-.88-.89-.88-2.13,.11-3.08,4.45-4.25,6.2-9.67,6.9-15.57,.49-4.13,.41-8.25-.51-12.32-.71-3.14-1.93-6.06-4.23-8.41-.51-.52-1.15-.85-1.72-1.27-1.24-.91-1.48-2.05-.73-3.19,.66-1,1.97-1.27,3.19-.57,3.12,1.78,5,4.61,6.38,7.8,1.84,4.26,2.46,8.77,2.45,13.38Z"/>
    <path class="cls-1" d="M17.22,126.72c-4.25-.15-8.19-1.45-11.94-3.39-.82-.42-1.5-1.11-1.29-2.19,.27-1.34,1.57-1.84,3.04-1.09,2,1.02,4.06,1.82,6.23,2.4,2.12,.57,4.28,.63,6.39,.27,4.42-.76,6.23-6.31,3.68-9.94-1.81-2.59-4.36-4.26-7.07-5.73-3.17-1.71-6.51-2.99-9.98-3.93-.38-.1-.76-.23-1.13-.38-.96-.39-1.39-1.29-1.08-2.2,.34-.99,1.22-1.51,2.23-1.24,6.26,1.62,12.21,3.96,17.2,8.18,2.88,2.43,5.09,5.41,4.77,9.43-.38,4.94-3.3,8.73-8.56,9.57-.83,.13-1.65,.25-2.49,.23Z"/>
    <path class="cls-1" d="M218.57,81.19c-4.83,.2-8.9-1.32-12.15-4.76-2.07-2.19-3.25-4.85-3.55-7.89-.6-5.99,1.76-10.82,5.79-15.01,.63-.66,1.36-1.23,2.22-1.59,.89-.38,1.74-.36,2.32,.54,.55,.85,.29,2.06-.55,2.64-3.57,2.46-5.51,6-6.08,10.14-.87,6.27,3.14,11.07,9.19,12.1,3.41,.58,6.64,.11,9.73-1.45,1.03-.52,1.92-.2,2.45,.75,.41,.75,.15,1.91-.67,2.4-2.7,1.63-5.65,2.28-8.68,2.12Z"/>
    <path class="cls-1" d="M176.32,28.2c-.07-7.42,4.81-12.15,11.5-13.58,.81-.17,1.65-.24,2.46-.42,.97-.22,1.73,.07,2.33,.82,.39,.49,.61,1.02,.25,1.65-.48,.82-1.13,1.26-2.12,1.3-3.18,.13-6.01,1.21-8.25,3.5-1.52,1.56-2.22,3.48-2.44,5.68-.28,2.75,.35,5.18,1.93,7.39,2.06,2.88,5.1,4.05,8.41,4.73,.58,.12,1.22,.15,1.71,.43,.68,.39,1.12,1.07,.92,1.92-.21,.91-.83,1.48-1.79,1.47-2.06-.03-4.01-.64-5.87-1.45-5.04-2.19-8.2-5.9-9.02-11.42-.1-.66-.01-1.35-.01-2.03Z"/>
    <path class="cls-1" d="M334.31,66.87c0-3.2-1.92-5.66-5.03-6.38-1.7-.39-3,.48-4.18,1.53-1.21,1.07-2.05,1.22-2.94,.44-.71-.62-.84-1.88-.2-2.57,3.19-3.43,7.42-4.3,11.62-1.54,4.07,2.68,5.93,8.74,3.35,13.3-1.53,2.69-3.77,4.28-6.88,4.78-2.19,.36-4.18-.07-6.13-.94-1.08-.48-1.48-1.63-1.04-2.58,.38-.82,1.35-1.12,2.47-.74,.98,.33,1.96,.55,3.01,.67,3.22,.36,6.26-2.72,5.94-5.98Z"/>
    <path class="cls-1" d="M116.77,17.99c.16,1.37-.16,2.64-.6,3.89-.56,1.56-1.51,2.31-2.52,1.93-1.27-.48-1.59-1.57-.95-3.16,.77-1.91,.78-3.83-.27-5.63-2.34-3.98-8.05-3.55-10.45-.24-1.85,2.56-1.67,4.41,.6,7.07,.79,.92,.8,2.08,.02,2.75-.79,.68-2.02,.63-2.77-.25-1.56-1.84-2.81-3.78-2.74-6.4,.09-3.33,1.65-5.79,4.24-7.59,3.27-2.28,7.86-2.78,11.32-.29,2.68,1.93,4.47,4.43,4.12,7.94Z"/>
    <path class="cls-1" d="M196.17,43.05c-.37-3,2.79-6.35,6.4-6.23,3.35,.11,6.31,2.74,6.27,6.33-.04,3.4-2.52,6.35-6.42,6.32-3.86-.03-6.55-3.19-6.25-6.41Z"/>
    <path class="cls-1" d="M219.39,15.57c-3.75,0-6.67-2.97-6.67-6.77,0-3.78,2.93-6.65,6.79-6.64,3.65,0,6.64,3.02,6.64,6.71,0,3.75-2.98,6.71-6.76,6.71Zm.01-3.61c1.48,.03,3.07-1.56,3.08-3.09,0-1.57-1.58-3.13-3.18-3.12-1.35,.01-2.95,1.68-2.97,3.1-.02,1.45,1.59,3.08,3.07,3.11Z"/>
    <path class="cls-1" d="M49.15,133.65c-3.81,.3-6.82-3.29-6.74-6.63,.09-3.9,3.06-6.77,6.61-6.73,3.94,.04,6.68,2.61,6.83,6.77,.13,3.61-3.35,6.94-6.7,6.59Zm-.08-9.58c-1.64,0-3.05,1.41-3.02,3.03,.03,1.59,1.43,2.97,3.01,2.96,1.65,0,2.96-1.3,2.98-2.92,.02-1.97-1.03-3.06-2.97-3.07Z"/>
    <path class="cls-1" d="M234.71,17.79c.09-5.75,1.87-9.48,4.59-12.84,.47-.59,.94-1.19,1.48-1.7,.91-.86,2.05-.88,2.77-.11,.82,.87,.79,1.77-.14,2.73-2.63,2.73-4.49,5.89-4.97,9.69-.33,2.61,.42,5.06,1.82,7.26,.89,1.4,1.79,2.8,3.22,3.78,.85,.58,.86,1.74,.2,2.54-.68,.82-1.63,.95-2.53,.33-1.64-1.13-2.8-2.7-3.84-4.35-1.66-2.63-2.73-5.47-2.61-7.33Z"/>
    <path class="cls-1" d="M70.01,104.2c.23,.92-.48,1.51-1,2.02-2.99,2.93-6.42,5-10.74,5.42-4.72,.45-8.68-1.32-12.41-3.91-.86-.6-1.6-1.32-2.3-2.07-.85-.91-.9-2.08-.16-2.77,.84-.79,1.92-.74,2.85,.21,2.42,2.44,5.25,4.09,8.65,4.74,3.64,.7,6.75-.51,9.61-2.59,.86-.62,1.67-1.31,2.34-2.19,.42-.56,1.17-1.02,2.02-.62,.73,.34,1.29,.82,1.15,1.78Z"/>
    <path class="cls-1" d="M374.19,7.9c2.95,0,5.19,2.3,5.2,5.35,0,2.7-2.31,5.36-5.34,5.22-2.91-.14-5.2-2.3-5.2-5.25,0-2.77,2.24-5.59,5.35-5.32Zm-1.52,5.27c-.04,.91,.5,1.69,1.39,1.64,.86-.04,1.5-.44,1.51-1.47,0-1.09-.5-1.86-1.39-1.82-.87,.04-1.51,.46-1.5,1.65Z"/>
    <path class="cls-1" d="M130.91,119.28c-2.33,.29-4.59-2.14-4.59-4.57,0-2.14,1.84-4.76,4.78-4.76,2.36,0,4.69,2.36,4.64,4.7-.06,2.49-2.11,4.95-4.82,4.64Z"/>
    <path class="cls-1" d="M227.11,90.63c0-2.67,2-4.64,4.69-4.64,2.6,0,4.68,2.11,4.66,4.72-.02,2.53-2.12,4.57-4.67,4.63-2.6,.06-4.93-2.47-4.69-4.71Z"/>
    <path class="cls-1" d="M49.16,78.91c0,1.31-.94,2.27-2.24,2.28-1.36,.02-2.34-.97-2.32-2.33,.02-1.3,.99-2.23,2.3-2.22,1.31,0,2.25,.96,2.26,2.27Z"/>
    <path class="cls-1" d="M105.04,78.61c-.01,1.29-1.05,2.38-2.23,2.33-1.14-.05-2.37-1.29-2.32-2.34,.05-1.25,1.2-2.38,2.4-2.36,1.29,.03,2.16,1,2.15,2.37Z"/>
    <path class="cls-1" d="M86.09,30.78c0,1.31-.94,2.26-2.24,2.27-1.36,.02-2.33-.96-2.31-2.32,.02-1.27,1.02-2.24,2.3-2.23,1.29,.02,2.26,.99,2.25,2.27Z"/>
    <path class="cls-1" d="M318,43.47c0,1.31-.93,2.26-2.23,2.28-1.36,.02-2.34-.95-2.32-2.31,.01-1.27,1.01-2.25,2.29-2.24,1.29,.01,2.26,.99,2.26,2.27Z"/>
    <path class="cls-1" d="M265.72,62.43c.02-1.3,1-2.28,2.28-2.28,1.06,0,2.29,1.3,2.27,2.39-.02,1.12-1.27,2.38-2.32,2.33-1.37-.06-2.25-1.02-2.22-2.45Z"/>
    <path class="cls-1" d="M276.99,62.49c0,1.3-1.06,2.41-2.3,2.39-1.08-.02-2.27-1.29-2.25-2.4,.02-1.12,1.26-2.36,2.32-2.33,1.22,.04,2.23,1.09,2.23,2.34Z"/>
    <path class="cls-1" d="M269.8,6.62c-.01,1.29-.97,2.26-2.23,2.24-1.32-.02-2.34-.97-2.33-2.18,.01-1.24,1.16-2.41,2.34-2.37,1.3,.04,2.23,1.01,2.22,2.3Z"/>
    <path class="cls-1" d="M105.04,71.82c0,1.24-.97,2.19-2.27,2.19-1.24,0-2.27-1.02-2.28-2.26-.01-1.18,1.18-2.3,2.41-2.29,1.21,.01,2.13,1.03,2.14,2.36Z"/>
    <path class="cls-1" d="M13.26,76.52c-6.21,.28-11.66-5.43-11.56-11.62,.1-5.9,4.99-11.76,12.11-11.42,5.72,.27,11.01,4.72,11.07,11.49,.06,6.16-4.75,11.58-11.62,11.54Zm-7.71-11.5c-.42,4.03,3.59,8.01,7.71,7.87,4.4-.15,7.84-3.28,7.87-7.79,.03-4.48-3.47-8.02-7.92-7.97-3.93,.04-7.94,3.25-7.66,7.89Z"/>
  </g>
</svg>